<svg width="39" height="37" viewBox="0 0 39 37" fill="none" xmlns="http://www.w3.org/2000/svg">
<path d="M19.5 0.0966797C8.73068 0.0966797 0 8.18334 0 18.1583C0 28.1332 8.73068 36.2199 19.5 36.2199C30.2693 36.2199 39 28.1332 39 18.1583C39 8.18334 30.2693 0.0966797 19.5 0.0966797ZM19.5 3.24103C23.1961 3.24103 26.5998 4.41504 29.3209 6.36077C27.362 8.70057 24.6586 10.5478 21.2195 11.9024C19.5709 9.10285 17.683 6.36898 15.5557 3.71721C16.8232 3.42166 18.1439 3.24103 19.5089 3.24103H19.5ZM12.2318 4.86658C14.3945 7.48551 16.3091 10.1947 17.9755 12.9697C14.0223 14.0451 9.31568 14.6034 3.86455 14.6362C4.99023 10.3671 8.0925 6.82052 12.2318 4.8748V4.86658ZM3.38591 18.1665C3.38591 18.0351 3.40364 17.912 3.40364 17.7806C9.6525 17.7724 15.0505 17.1074 19.5709 15.7856C19.952 16.4999 20.3155 17.2223 20.6611 17.9448C15.1657 19.5375 10.6452 22.7968 7.1175 27.6981C4.79523 25.112 3.38591 21.787 3.38591 18.1665ZM19.4911 33.0919C15.7684 33.0919 12.3382 31.9015 9.60818 29.9311C12.808 25.2844 16.8941 22.255 21.9552 20.8593C23.462 24.5045 24.57 28.2481 25.2791 32.0903C23.4798 32.7307 21.5386 33.1001 19.5 33.1001L19.4911 33.0919ZM28.4345 30.5715C27.7255 27.0331 26.6795 23.5685 25.3145 20.1943C28.3636 19.792 31.7141 19.8987 35.3836 20.4898C34.6745 24.6851 32.0864 28.3056 28.4257 30.5715H28.4345ZM24.0116 17.2141C23.6127 16.3685 23.205 15.5229 22.7618 14.6855C26.5111 13.1831 29.5336 11.1389 31.7761 8.54458C33.9655 10.9418 35.3482 13.9877 35.552 17.3291C31.3684 16.6969 27.5216 16.6559 24.0116 17.2223V17.2141Z" fill="white"/>
</svg>
