<svg width="56" height="34" viewBox="0 0 56 34" fill="none" xmlns="http://www.w3.org/2000/svg">
<path d="M20.2538 31.9897C21.7375 31.7018 23.0233 31.1783 24.1113 30.4061C25.0722 29.7387 25.8776 28.901 26.5276 27.9195C27.5449 26.4275 28.0536 24.7522 28.0536 22.8807C28.0536 21.0092 27.6156 19.5172 26.7254 18.2477C25.8352 16.9782 24.5211 16.0489 22.7831 15.46C23.9276 14.9234 24.8037 14.3213 25.383 13.6539C26.4286 12.476 26.9656 10.9316 26.9656 8.99465C26.9656 7.05767 26.4428 5.51332 25.3972 4.16529C23.6592 1.97964 20.706 0.854109 16.5518 0.801758H0.0338135V32.4347H15.4214C17.1594 32.4347 18.7702 32.2908 20.2538 32.0028V31.9897ZM6.84447 6.28551H14.2768C15.9159 6.28551 17.2583 6.45563 18.318 6.78283C19.5473 7.25398 20.1549 8.22249 20.1549 9.7014C20.1549 11.0363 19.6886 11.9525 18.7702 12.476C17.8517 12.9995 16.6366 13.2613 15.1529 13.2613H6.8586V6.28551H6.84447ZM6.84447 26.9248V18.4963H15.2518C16.7213 18.5094 17.8517 18.6926 18.6713 19.0329C20.1267 19.648 20.8473 20.7736 20.8473 22.4226C20.8473 24.3727 20.0984 25.6815 18.6006 26.3751C17.7811 26.7416 16.6224 26.9379 15.1388 26.9379H6.84447V26.9248Z" fill="white"/>
<path d="M33.8328 30.3403C36.4045 32.2642 39.3718 33.2197 42.7206 33.2197C46.79 33.2197 49.9551 32.081 52.2159 29.8038C53.6713 28.3772 54.4908 26.9637 54.6604 25.5764H47.9204C47.5248 26.257 47.0726 26.7936 46.5639 27.1862C45.6172 27.9061 44.402 28.2594 42.9043 28.2594C41.4913 28.2594 40.2761 27.9715 39.2587 27.3825C37.6055 26.4402 36.7153 24.7912 36.6164 22.4485H55.0137C55.0419 20.433 54.9713 18.8886 54.8017 17.8023C54.4909 15.9701 53.8267 14.3603 52.7952 12.973C51.6507 11.4025 50.1953 10.2377 48.4291 9.51784C46.677 8.78493 44.6846 8.41846 42.4945 8.41846C38.7924 8.41846 35.7827 9.50475 33.4654 11.6642C31.1481 13.8237 29.9894 16.9255 29.9894 20.9827C29.9894 25.3016 31.2753 28.4296 33.8469 30.3535L33.8328 30.3403ZM38.5522 14.7922C39.4848 13.9022 40.7989 13.4572 42.4945 13.4572C44.0488 13.4572 45.3629 13.876 46.4085 14.7137C47.4541 15.5513 48.0476 16.7815 48.1606 18.4044H36.786C37.0262 16.8862 37.6055 15.6821 38.5381 14.7791L38.5522 14.7922Z" fill="white"/>
<path d="M49.4746 2.60791H34.6381V5.80129H49.4746V2.60791Z" fill="white"/>
</svg>
