<svg width="89" height="82" viewBox="0 0 89 82" fill="none" xmlns="http://www.w3.org/2000/svg">
<path d="M72.4956 19.1103C72.4956 21.7253 70.2188 23.8342 67.3954 23.8342C64.5721 23.8342 62.2952 21.7253 62.2952 19.1103C62.2952 16.4952 64.5949 14.3863 67.3954 14.3863C70.196 14.3863 72.4956 16.4952 72.4956 19.1103ZM66.1432 40.326C66.1432 51.2924 56.512 60.2131 44.6722 60.2131C32.8325 60.2131 23.2013 51.2924 23.2013 40.326C23.2013 29.3596 32.8325 20.4389 44.6722 20.4389C56.512 20.4389 66.1432 29.3596 66.1432 40.326ZM58.4246 40.326C58.4246 33.3033 52.2542 27.5881 44.6722 27.5881C37.0903 27.5881 30.9199 33.3033 30.9199 40.326C30.9199 47.3487 37.0903 53.0639 44.6722 53.0639C52.2542 53.0639 58.4246 47.3487 58.4246 40.326ZM88.115 24.3615C88.115 10.9698 76.3891 0.108887 61.9309 0.108887H26.2068C11.7259 0.108887 0 10.9698 0 24.3615V57.4504C0 70.8421 11.7259 81.703 26.184 81.703H61.9082C76.3663 81.703 88.0922 70.8421 88.0922 57.4504V24.3615H88.115ZM79.5084 57.0919C79.5084 66.2868 71.4483 73.7524 61.5211 73.7524H26.5711C16.6439 73.7524 8.58381 66.2868 8.58381 57.0919V24.72C8.58381 15.5251 16.6439 8.05951 26.5711 8.05951H61.5211C71.4483 8.05951 79.5084 15.5251 79.5084 24.72V57.0919Z" fill="white"/>
</svg>
