<svg width="90" height="83" viewBox="0 0 90 83" fill="none" xmlns="http://www.w3.org/2000/svg">
<path d="M1.89513 27.4055H20.3657V82.3329H1.89513V27.4055ZM11.1176 0.108887C17.0168 0.108887 21.8084 4.54697 21.8084 10.0111C21.8084 15.4752 17.0168 19.9133 11.1176 19.9133C5.2183 19.9133 0.426758 15.4752 0.426758 10.0111C0.426758 4.54697 5.2183 0.108887 11.1176 0.108887ZM31.9067 82.3568H50.3258V55.1794C50.3258 48.0212 51.7941 41.0777 61.3772 41.0777C70.9603 41.0777 70.9603 49.262 70.9603 55.6566V82.3568H89.3794V52.2207C89.3794 37.427 85.9274 26.0455 67.2765 26.0455C58.2859 26.0455 52.2836 30.6029 49.8105 34.9217H49.5787V27.4055H31.8809V82.3329L31.9067 82.3568Z" fill="white"/>
</svg>
